<mxfile host="app.diagrams.net" agent="Mozilla/5.0 (Windows NT 10.0; Win64; x64) AppleWebKit/537.36 (KHTML, like Gecko) Chrome/131.0.0.0 Safari/537.36" version="24.8.6">
  <diagram name="PÃ¡gina-1" id="c1tC7LxAb9pQ3drm0hh5">
    <mxGraphModel dx="921" dy="373" grid="1" gridSize="10" guides="1" tooltips="1" connect="1" arrows="1" fold="1" page="1" pageScale="1" pageWidth="827" pageHeight="1169" math="0" shadow="0">
      <root>
        <mxCell id="0" />
        <mxCell id="1" parent="0" />
        <mxCell id="1jHDpUgUWShv2iI5Gh_v-1" value="&lt;p style=&quot;margin:0px;margin-top:4px;text-align:center;&quot;&gt;&lt;b&gt;Automovel&lt;/b&gt;&lt;/p&gt;&lt;hr size=&quot;1&quot; style=&quot;border-style:solid;&quot;&gt;&lt;p style=&quot;margin:0px;margin-left:4px;&quot;&gt;+ nome: String&lt;/p&gt;&lt;p style=&quot;margin:0px;margin-left:4px;&quot;&gt;+ cor: String&lt;/p&gt;&lt;p style=&quot;margin:0px;margin-left:4px;&quot;&gt;# rodas: Int&lt;/p&gt;&lt;p style=&quot;margin:0px;margin-left:4px;&quot;&gt;# combustivel: String&lt;/p&gt;&lt;hr size=&quot;1&quot; style=&quot;border-style:solid;&quot;&gt;&lt;p style=&quot;margin:0px;margin-left:4px;&quot;&gt;+ getDados(): Void&lt;/p&gt;&lt;p style=&quot;margin:0px;margin-left:4px;&quot;&gt;+ ligar(): Void&lt;/p&gt;&lt;p style=&quot;margin:0px;margin-left:4px;&quot;&gt;+ acelerar(): Void&lt;/p&gt;&lt;p style=&quot;margin:0px;margin-left:4px;&quot;&gt;+ frear(): Void&lt;/p&gt;&lt;p style=&quot;margin:0px;margin-left:4px;&quot;&gt;+ desligar(): Void&lt;/p&gt;&lt;p style=&quot;margin:0px;margin-left:4px;&quot;&gt;&lt;br&gt;&lt;/p&gt;" style="verticalAlign=top;align=left;overflow=fill;html=1;whiteSpace=wrap;" vertex="1" parent="1">
          <mxGeometry x="340" y="160" width="160" height="190" as="geometry" />
        </mxCell>
        <mxCell id="1jHDpUgUWShv2iI5Gh_v-2" value="&lt;p style=&quot;margin:0px;margin-top:4px;text-align:center;&quot;&gt;&lt;b&gt;Onibus&lt;/b&gt;&lt;/p&gt;&lt;hr size=&quot;1&quot; style=&quot;border-style:solid;&quot;&gt;&lt;p style=&quot;margin:0px;margin-left:4px;&quot;&gt;# capacidade: Int&lt;/p&gt;&lt;hr size=&quot;1&quot; style=&quot;border-style:solid;&quot;&gt;&lt;p style=&quot;margin:0px;margin-left:4px;&quot;&gt;+ ligar(): Void&lt;/p&gt;&lt;p style=&quot;margin:0px;margin-left:4px;&quot;&gt;+ pararNoPonto(String nomePonto): Void&lt;/p&gt;&lt;p style=&quot;margin:0px;margin-left:4px;&quot;&gt;+ getDados&lt;span style=&quot;background-color: initial;&quot;&gt;(): Void&lt;/span&gt;&lt;/p&gt;" style="verticalAlign=top;align=left;overflow=fill;html=1;whiteSpace=wrap;" vertex="1" parent="1">
          <mxGeometry x="230" y="450" width="230" height="110" as="geometry" />
        </mxCell>
        <mxCell id="1jHDpUgUWShv2iI5Gh_v-5" style="edgeStyle=orthogonalEdgeStyle;rounded=0;orthogonalLoop=1;jettySize=auto;html=1;" edge="1" parent="1" source="1jHDpUgUWShv2iI5Gh_v-3">
          <mxGeometry relative="1" as="geometry">
            <mxPoint x="430" y="350" as="targetPoint" />
            <Array as="points">
              <mxPoint x="595" y="400" />
              <mxPoint x="430" y="400" />
            </Array>
          </mxGeometry>
        </mxCell>
        <mxCell id="1jHDpUgUWShv2iI5Gh_v-3" value="&lt;p style=&quot;margin:0px;margin-top:4px;text-align:center;&quot;&gt;&lt;b&gt;Onibus&lt;/b&gt;&lt;/p&gt;&lt;hr size=&quot;1&quot; style=&quot;border-style:solid;&quot;&gt;&lt;p style=&quot;margin:0px;margin-left:4px;&quot;&gt;# pesoSuportado: Int&lt;/p&gt;&lt;p style=&quot;margin:0px;margin-left:4px;&quot;&gt;# comprimento: Float&lt;/p&gt;&lt;hr size=&quot;1&quot; style=&quot;border-style:solid;&quot;&gt;&lt;p style=&quot;margin:0px;margin-left:4px;&quot;&gt;+ ligar(): Void&lt;/p&gt;&lt;p style=&quot;margin:0px;margin-left:4px;&quot;&gt;+ despejarCarga(String lugar): Void&lt;/p&gt;&lt;p style=&quot;margin: 0px 0px 0px 4px;&quot;&gt;+ pegarCarga(String lugar, String material): Void&lt;/p&gt;&lt;p style=&quot;margin:0px;margin-left:4px;&quot;&gt;+ getDados&lt;span style=&quot;background-color: initial;&quot;&gt;(): Void&lt;/span&gt;&lt;/p&gt;" style="verticalAlign=top;align=left;overflow=fill;html=1;whiteSpace=wrap;" vertex="1" parent="1">
          <mxGeometry x="480" y="435" width="230" height="150" as="geometry" />
        </mxCell>
        <mxCell id="1jHDpUgUWShv2iI5Gh_v-4" style="edgeStyle=orthogonalEdgeStyle;rounded=0;orthogonalLoop=1;jettySize=auto;html=1;exitX=0.5;exitY=0;exitDx=0;exitDy=0;entryX=0.448;entryY=1.012;entryDx=0;entryDy=0;entryPerimeter=0;" edge="1" parent="1" source="1jHDpUgUWShv2iI5Gh_v-2" target="1jHDpUgUWShv2iI5Gh_v-1">
          <mxGeometry relative="1" as="geometry" />
        </mxCell>
      </root>
    </mxGraphModel>
  </diagram>
</mxfile>
